<mxfile host="app.diagrams.net" agent="Mozilla/5.0 (Windows NT 10.0; Win64; x64) AppleWebKit/537.36 (KHTML, like Gecko) Chrome/138.0.0.0 Safari/537.36 Edg/138.0.0.0" version="27.1.6">
  <diagram name="第 1 页" id="VgDxom-XUPM9i-BYI5TX">
    <mxGraphModel dx="1034" dy="666" grid="1" gridSize="10" guides="1" tooltips="1" connect="1" arrows="1" fold="1" page="1" pageScale="1" pageWidth="827" pageHeight="1169" math="0" shadow="0">
      <root>
        <mxCell id="0" />
        <mxCell id="1" parent="0" />
        <mxCell id="82j6tIxpGkV1-OfRXxCL-1" value="提取数据 1 特征" style="rounded=0;whiteSpace=wrap;html=1;" vertex="1" parent="1">
          <mxGeometry x="20" y="130" width="120" height="60" as="geometry" />
        </mxCell>
        <mxCell id="82j6tIxpGkV1-OfRXxCL-16" value="" style="edgeStyle=orthogonalEdgeStyle;rounded=0;orthogonalLoop=1;jettySize=auto;html=1;" edge="1" parent="1" source="82j6tIxpGkV1-OfRXxCL-2" target="82j6tIxpGkV1-OfRXxCL-3">
          <mxGeometry relative="1" as="geometry" />
        </mxCell>
        <mxCell id="82j6tIxpGkV1-OfRXxCL-2" value="提取数据 1&#39; 特征" style="rounded=0;whiteSpace=wrap;html=1;" vertex="1" parent="1">
          <mxGeometry x="20" y="210" width="120" height="60" as="geometry" />
        </mxCell>
        <mxCell id="82j6tIxpGkV1-OfRXxCL-8" value="" style="edgeStyle=orthogonalEdgeStyle;rounded=0;orthogonalLoop=1;jettySize=auto;html=1;" edge="1" parent="1" source="82j6tIxpGkV1-OfRXxCL-3" target="82j6tIxpGkV1-OfRXxCL-4">
          <mxGeometry relative="1" as="geometry" />
        </mxCell>
        <mxCell id="82j6tIxpGkV1-OfRXxCL-3" value="计算五层相似度向量" style="rounded=0;whiteSpace=wrap;html=1;" vertex="1" parent="1">
          <mxGeometry x="190" y="170" width="120" height="60" as="geometry" />
        </mxCell>
        <mxCell id="82j6tIxpGkV1-OfRXxCL-4" value="正样本：Label=1" style="rhombus;whiteSpace=wrap;html=1;" vertex="1" parent="1">
          <mxGeometry x="360" y="160" width="130" height="80" as="geometry" />
        </mxCell>
        <mxCell id="82j6tIxpGkV1-OfRXxCL-17" value="" style="edgeStyle=orthogonalEdgeStyle;rounded=0;orthogonalLoop=1;jettySize=auto;html=1;" edge="1" parent="1" source="82j6tIxpGkV1-OfRXxCL-5" target="82j6tIxpGkV1-OfRXxCL-6">
          <mxGeometry relative="1" as="geometry" />
        </mxCell>
        <mxCell id="82j6tIxpGkV1-OfRXxCL-5" value="提取数据 2 特征" style="rounded=0;whiteSpace=wrap;html=1;" vertex="1" parent="1">
          <mxGeometry x="20" y="330" width="120" height="60" as="geometry" />
        </mxCell>
        <mxCell id="82j6tIxpGkV1-OfRXxCL-9" value="" style="edgeStyle=orthogonalEdgeStyle;rounded=0;orthogonalLoop=1;jettySize=auto;html=1;" edge="1" parent="1" source="82j6tIxpGkV1-OfRXxCL-6" target="82j6tIxpGkV1-OfRXxCL-7">
          <mxGeometry relative="1" as="geometry" />
        </mxCell>
        <mxCell id="82j6tIxpGkV1-OfRXxCL-6" value="计算相似度" style="rounded=0;whiteSpace=wrap;html=1;" vertex="1" parent="1">
          <mxGeometry x="190" y="330" width="120" height="60" as="geometry" />
        </mxCell>
        <mxCell id="82j6tIxpGkV1-OfRXxCL-7" value="负样本：Label=0" style="rhombus;whiteSpace=wrap;html=1;" vertex="1" parent="1">
          <mxGeometry x="360" y="320" width="130" height="80" as="geometry" />
        </mxCell>
        <mxCell id="82j6tIxpGkV1-OfRXxCL-12" value="" style="edgeStyle=orthogonalEdgeStyle;rounded=0;orthogonalLoop=1;jettySize=auto;html=1;" edge="1" parent="1" source="82j6tIxpGkV1-OfRXxCL-10" target="82j6tIxpGkV1-OfRXxCL-11">
          <mxGeometry relative="1" as="geometry" />
        </mxCell>
        <mxCell id="82j6tIxpGkV1-OfRXxCL-10" value="训练逻辑回归模型" style="rounded=0;whiteSpace=wrap;html=1;" vertex="1" parent="1">
          <mxGeometry x="550" y="250" width="120" height="60" as="geometry" />
        </mxCell>
        <mxCell id="82j6tIxpGkV1-OfRXxCL-11" value="获得权重 W&lt;sub&gt;i&lt;/sub&gt;" style="rounded=0;whiteSpace=wrap;html=1;" vertex="1" parent="1">
          <mxGeometry x="720" y="250" width="120" height="60" as="geometry" />
        </mxCell>
        <mxCell id="82j6tIxpGkV1-OfRXxCL-13" value="" style="endArrow=classic;html=1;rounded=0;exitX=1;exitY=0.5;exitDx=0;exitDy=0;entryX=0;entryY=0.5;entryDx=0;entryDy=0;edgeStyle=orthogonalEdgeStyle;" edge="1" parent="1" source="82j6tIxpGkV1-OfRXxCL-1" target="82j6tIxpGkV1-OfRXxCL-3">
          <mxGeometry width="50" height="50" relative="1" as="geometry">
            <mxPoint x="390" y="370" as="sourcePoint" />
            <mxPoint x="440" y="320" as="targetPoint" />
          </mxGeometry>
        </mxCell>
        <mxCell id="82j6tIxpGkV1-OfRXxCL-19" value="" style="endArrow=classic;html=1;rounded=0;exitX=1;exitY=0.5;exitDx=0;exitDy=0;entryX=0;entryY=0.5;entryDx=0;entryDy=0;edgeStyle=orthogonalEdgeStyle;" edge="1" parent="1" source="82j6tIxpGkV1-OfRXxCL-4" target="82j6tIxpGkV1-OfRXxCL-10">
          <mxGeometry width="50" height="50" relative="1" as="geometry">
            <mxPoint x="390" y="370" as="sourcePoint" />
            <mxPoint x="440" y="320" as="targetPoint" />
          </mxGeometry>
        </mxCell>
        <mxCell id="82j6tIxpGkV1-OfRXxCL-20" value="" style="endArrow=classic;html=1;rounded=0;exitX=1;exitY=0.5;exitDx=0;exitDy=0;entryX=0;entryY=0.5;entryDx=0;entryDy=0;edgeStyle=orthogonalEdgeStyle;" edge="1" parent="1" source="82j6tIxpGkV1-OfRXxCL-7" target="82j6tIxpGkV1-OfRXxCL-10">
          <mxGeometry width="50" height="50" relative="1" as="geometry">
            <mxPoint x="390" y="370" as="sourcePoint" />
            <mxPoint x="440" y="320" as="targetPoint" />
          </mxGeometry>
        </mxCell>
      </root>
    </mxGraphModel>
  </diagram>
</mxfile>
